<svg width="640" height="420" viewBox="0 0 640 420" fill="none" xmlns="http://www.w3.org/2000/svg">
  <defs>
    <linearGradient id="panel" x1="0" y1="0" x2="640" y2="420" gradientUnits="userSpaceOnUse">
      <stop offset="0.2" stop-color="#0f172a"/>
      <stop offset="1" stop-color="#1f2937"/>
    </linearGradient>
    <radialGradient id="stage" cx="0" cy="0" r="1" gradientUnits="userSpaceOnUse" gradientTransform="translate(320 160) scale(280 220)">
      <stop stop-color="#fcd34d" stop-opacity="0.9"/>
      <stop offset="1" stop-color="#fef3c7" stop-opacity="0"/>
    </radialGradient>
  </defs>
  <rect width="640" height="420" rx="32" fill="url(#panel)"/>
  <rect x="40" y="36" width="560" height="348" rx="28" fill="#111827" stroke="#334155" stroke-width="4"/>
  <rect x="40" y="240" width="560" height="144" rx="0" fill="#0f172a"/>
  <circle cx="320" cy="170" r="180" fill="url(#stage)"/>
  <g opacity="0.85">
    <path d="M186 250C186 208 220 174 262 174C304 174 338 208 338 250V360H186V250Z" fill="#7c3aed"/>
    <path d="M302 232C302 190 336 156 378 156C420 156 454 190 454 232V360H302V232Z" fill="#38bdf8"/>
    <path d="M414 246C414 204 448 170 490 170C532 170 566 204 566 246V360H414V246Z" fill="#f472b6"/>
  </g>
  <g opacity="0.12">
    <path d="M120 60L220 240H20L120 60Z" fill="#f8fafc"/>
    <path d="M520 60L620 240H420L520 60Z" fill="#f8fafc"/>
  </g>
  <text x="100" y="310" fill="#e2e8f0" font-family="'Inter', 'Segoe UI', sans-serif" font-weight="600" font-size="24">Sesión de Improvisación en vivo</text>
  <text x="100" y="344" fill="#cbd5f5" font-family="'Inter', 'Segoe UI', sans-serif" font-size="16">Activa el escenario y vive la energía del momento.</text>
</svg>
